<svg xmlns="http://www.w3.org/2000/svg" viewBox="0 0 400 400" width="100%" height="100%">
  <rect width="100%" height="100%" fill="#FAF6F0"/>
  <rect x="20" y="20" width="360" height="360" rx="16" fill="none" stroke="#E3DACF" stroke-width="2" stroke-dasharray="4 4"/>
  
  <!-- Ball of Yarn / Stitch Emblem -->
  <circle cx="200" cy="180" r="45" fill="none" stroke="#C68B7B" stroke-width="3"/>
  <path d="M165 150 C 180 170, 220 170, 235 150" fill="none" stroke="#C68B7B" stroke-width="2"/>
  <path d="M160 180 C 180 190, 220 190, 240 180" fill="none" stroke="#C68B7B" stroke-width="2"/>
  <path d="M165 210 C 180 190, 220 190, 235 210" fill="none" stroke="#C68B7B" stroke-width="2"/>
  <path d="M180 145 C 190 170, 190 200, 180 215" fill="none" stroke="#C68B7B" stroke-width="2"/>
  <path d="M200 135 C 205 170, 205 200, 200 225" fill="none" stroke="#C68B7B" stroke-width="2"/>
  <path d="M220 145 C 210 170, 210 200, 220 215" fill="none" stroke="#C68B7B" stroke-width="2"/>

  <!-- Brand text -->
  <text x="200" y="265" font-family="'Playfair Display', Georgia, serif" font-size="18" font-style="italic" font-weight="bold" fill="#2C2421" text-anchor="middle">Eyara Essence</text>
  <text x="200" y="290" font-family="'Inter', sans-serif" font-size="11" font-weight="600" fill="#6E5D57" letter-spacing="1.5" text-anchor="middle" uppercase="true">HANDMADE WITH LOVE</text>
  <text x="200" y="312" font-family="'Inter', sans-serif" font-size="9" fill="#6E5D57" text-anchor="middle">Photograph Coming Soon</text>
</svg>
